<svg id="svg" version="1.1" xmlns="http://www.w3.org/2000/svg" xmlns:xlink="http://www.w3.org/1999/xlink" width="400"
     height="327.8688524590164" viewBox="0, 0, 400,327.8688524590164">
    <path id="path0"
          d="M213.934 5.991 C 204.918 7.049,174.417 7.978,146.155 8.056 C 88.847 8.213,87.862 8.389,82.625 19.426 C 78.928 27.217,81.701 36.591,89.024 41.056 C 93.842 43.994,97.511 44.251,134.710 44.256 L 175.158 44.262 180.082 48.405 C 189.510 56.339,188.058 68.676,177.047 74.178 C 172.160 76.620,166.454 77.044,138.480 77.047 C 101.894 77.049,100.086 77.511,96.720 87.710 C 92.005 101.997,100.953 111.475,119.155 111.475 C 139.550 111.475,148.894 120.828,142.506 134.847 C 138.777 143.033,136.728 143.387,87.969 144.262 L 42.332 145.082 38.379 149.682 C 32.292 156.765,32.785 168.305,39.448 174.693 L 44.470 179.508 88.219 180.328 C 135.302 181.210,135.226 181.196,138.773 189.685 C 143.880 201.908,135.716 211.469,120.163 211.482 C 101.145 211.496,91.391 230.677,104.251 242.771 C 108.186 246.470,109.947 246.773,131.970 247.541 C 153.893 248.305,155.768 248.625,159.626 252.255 C 172.124 264.017,162.085 280.319,142.339 280.325 C 124.302 280.331,116.296 300.773,129.499 313.106 L 134.221 317.517 172.438 318.680 C 193.458 319.320,218.033 320.833,227.049 322.042 C 270.555 327.874,324.602 323.315,364.155 310.477 C 384.163 303.982,384.428 303.073,375.153 272.640 C 371.154 259.518,370.649 259.417,343.245 266.212 C 247.210 290.029,185.552 265.625,185.270 203.689 L 185.246 198.361 287.451 198.361 C 389.361 198.361,389.665 198.351,392.779 194.901 C 397.142 190.066,397.135 125.698,392.769 101.715 C 378.527 23.494,322.116 -6.701,213.934 5.991 M7.523 82.093 C 0.014 91.016,2.493 104.477,12.597 109.644 C 18.111 112.464,64.586 112.071,70.221 109.156 C 79.932 104.135,81.975 91.042,74.444 82.093 L 70.200 77.049 40.984 77.049 L 11.767 77.049 7.523 82.093 M338.065 108.269 C 349.002 111.307,360.631 124.741,351.115 123.344 C 344.133 122.319,336.066 129.696,336.066 137.105 C 336.066 144.835,342.114 150.820,349.925 150.820 C 357.137 150.820,357.186 152.051,350.241 158.783 C 336.522 172.080,314.341 169.870,303.951 154.170 C 288.287 130.499,310.498 100.613,338.065 108.269 "
          fill="#2a2e31"/>
</svg>