<svg version="1.1" xmlns="http://www.w3.org/2000/svg" viewBox="0 0 512 512">
    <g>
        <path d="M398.699,115.499l25.835-34.432c3.541-4.715,2.581-11.392-2.133-14.933c-4.715-3.52-11.392-2.603-14.933,2.133
			l-25.813,34.411C354.176,83.989,322.304,71.488,288,66.539V21.333h10.667c5.888,0,10.667-4.779,10.667-10.667S304.555,0,298.667,0
			h-21.333h-42.667h-21.333c-5.888,0-10.667,4.779-10.667,10.667s4.779,10.667,10.667,10.667H224V66.56
			C115.627,82.176,32,175.381,32,288c0,123.52,100.48,224,224,224s224-100.48,224-224C480,218.667,448.32,156.608,398.699,115.499z
			 M327.552,359.552c-2.091,2.069-4.821,3.115-7.552,3.115s-5.461-1.045-7.552-3.115l-64-64c-1.984-2.005-3.115-4.715-3.115-7.552
			V138.667c0-5.888,4.779-10.667,10.667-10.667s10.667,4.779,10.667,10.667v144.917l60.885,60.885
			C331.712,348.629,331.712,355.371,327.552,359.552z" fill="#bebebe"/>
    </g>
</svg>
